<svg id="livetype" xmlns="http://www.w3.org/2000/svg" viewBox="0 0 117.92 38.25"><defs><style>.cls-1{fill:#fff;}.cls-2{fill:none;stroke:#fff;stroke-linecap:round;stroke-linejoin:round;stroke-width:1.76px;}</style></defs><rect width="117.92" height="38.25" rx="4.08"/><g id="_Group_" data-name=" Group "><path class="cls-1" d="M38.66,24.7v3.85H36.42V17.64h4.25a4.9,4.9,0,0,1,2.16.45,3.39,3.39,0,0,1,1.44,1.28,3.59,3.59,0,0,1,.5,1.88,3.14,3.14,0,0,1-1.1,2.53,4.54,4.54,0,0,1-3,.92Zm0-1.82h2A2,2,0,0,0,42,22.46a1.5,1.5,0,0,0,.47-1.19A1.82,1.82,0,0,0,42,20a1.78,1.78,0,0,0-1.31-.51H38.66Z"/><path class="cls-1" d="M48.45,28.55H46.28V17h2.17Z"/><path class="cls-1" d="M54.93,28.55a2.62,2.62,0,0,1-.22-.73,2.62,2.62,0,0,1-2,.88,2.9,2.9,0,0,1-2-.69,2.22,2.22,0,0,1-.78-1.74,2.29,2.29,0,0,1,1-2,4.64,4.64,0,0,1,2.76-.69h1v-.47a1.32,1.32,0,0,0-.29-.9,1.14,1.14,0,0,0-.91-.33,1.24,1.24,0,0,0-.85.26.87.87,0,0,0-.31.72H50.09a2.2,2.2,0,0,1,.44-1.31,2.8,2.8,0,0,1,1.22-.94,4.64,4.64,0,0,1,1.79-.34,3.48,3.48,0,0,1,2.37.76,2.61,2.61,0,0,1,.88,2.11v3.51a4,4,0,0,0,.33,1.75v.13ZM53.14,27a1.87,1.87,0,0,0,.88-.21,1.46,1.46,0,0,0,.6-.58V24.86h-.81c-1.08,0-1.66.38-1.73,1.12v.13a.88.88,0,0,0,.28.67A1.13,1.13,0,0,0,53.14,27Z"/><path class="cls-1" d="M61.37,25.48l1.5-5h2.32L61.93,29.8l-.18.43a2.46,2.46,0,0,1-2.39,1.59,3.54,3.54,0,0,1-1-.14V30h.33a1.8,1.8,0,0,0,.91-.18,1.28,1.28,0,0,0,.48-.62l.25-.67-2.83-8.13h2.32Z"/><path class="cls-1" d="M75.66,25.69a1.15,1.15,0,0,0-.45-1A5.75,5.75,0,0,0,73.59,24a10.93,10.93,0,0,1-1.85-.75,3,3,0,0,1-1.86-2.7,2.68,2.68,0,0,1,.5-1.58,3.26,3.26,0,0,1,1.43-1.08,5.38,5.38,0,0,1,2.1-.39,4.78,4.78,0,0,1,2.08.43,3.34,3.34,0,0,1,1.42,1.19,3.17,3.17,0,0,1,.5,1.75H75.67a1.44,1.44,0,0,0-.48-1.16,1.9,1.9,0,0,0-1.32-.42,2.07,2.07,0,0,0-1.28.35,1.09,1.09,0,0,0-.46.92,1.05,1.05,0,0,0,.54.89,6,6,0,0,0,1.57.67A6.93,6.93,0,0,1,77,23.54a2.87,2.87,0,0,1,.87,2.13,2.62,2.62,0,0,1-1.07,2.22A4.65,4.65,0,0,1,74,28.7a5.67,5.67,0,0,1-2.29-.46A3.61,3.61,0,0,1,70.09,27a3.22,3.22,0,0,1-.54-1.85H71.8q0,1.8,2.16,1.8a2.09,2.09,0,0,0,1.25-.33A1,1,0,0,0,75.66,25.69Z"/><path class="cls-1" d="M81.88,18.45v2h1.39V22H81.88v4a1,1,0,0,0,.17.65.88.88,0,0,0,.66.19,3.14,3.14,0,0,0,.64-.05V28.5a4.48,4.48,0,0,1-1.31.2,2.07,2.07,0,0,1-2.32-2.3V22H78.53V20.44h1.19v-2Z"/><path class="cls-1" d="M83.91,24.42a4.82,4.82,0,0,1,.47-2.15,3.37,3.37,0,0,1,1.33-1.46,4,4,0,0,1,2-.52,3.72,3.72,0,0,1,2.68,1A4,4,0,0,1,91.57,24l0,.56a4.25,4.25,0,0,1-1,3,4,4,0,0,1-5.59,0,4.3,4.3,0,0,1-1-3.05Zm2.17.15a3,3,0,0,0,.43,1.77,1.56,1.56,0,0,0,2.47,0,3.3,3.3,0,0,0,.44-1.93A3,3,0,0,0,89,22.66,1.44,1.44,0,0,0,87.74,22a1.4,1.4,0,0,0-1.23.62A3.35,3.35,0,0,0,86.08,24.57Z"/><path class="cls-1" d="M97.47,22.47a5.77,5.77,0,0,0-.78-.06,1.6,1.6,0,0,0-1.61.83v5.31H92.92V20.44h2l.06,1a2,2,0,0,1,1.81-1.12,2.41,2.41,0,0,1,.67.1Z"/><path class="cls-1" d="M102.1,28.7a4,4,0,0,1-2.9-1.1,3.87,3.87,0,0,1-1.12-2.91v-.21a5,5,0,0,1,.47-2.18,3.53,3.53,0,0,1,1.34-1.49,3.81,3.81,0,0,1,2-.52,3.37,3.37,0,0,1,2.62,1.05,4.24,4.24,0,0,1,1,3v.89h-5.16a2,2,0,0,0,.64,1.27,1.89,1.89,0,0,0,1.33.48,2.33,2.33,0,0,0,2-.91l1.06,1.2a3.28,3.28,0,0,1-1.32,1.07A4.24,4.24,0,0,1,102.1,28.7ZM101.85,22a1.36,1.36,0,0,0-1,.43,2.24,2.24,0,0,0-.51,1.25h3v-.17a1.63,1.63,0,0,0-.39-1.12A1.42,1.42,0,0,0,101.85,22Z"/></g><g id="_Group_4" data-name=" Group 4"><path class="cls-1" d="M38.84,6.73a2.63,2.63,0,0,1,2.82,2.44,2.25,2.25,0,0,1,0,.52c0,1.91-1,3-2.81,3H36.69v-6Zm-1.23,5.12h1.13a1.88,1.88,0,0,0,2-1.76,1.7,1.7,0,0,0,0-.39A1.88,1.88,0,0,0,39.1,7.59a1.45,1.45,0,0,0-.36,0H37.61Z"/><path class="cls-1" d="M42.7,10.44A2.13,2.13,0,1,1,46.94,10a1.41,1.41,0,0,1,0,.41,2.13,2.13,0,1,1-4.24.41A1.41,1.41,0,0,1,42.7,10.44Zm3.33,0c0-1-.44-1.55-1.21-1.55s-1.21.58-1.21,1.55S44.05,12,44.82,12,46,11.42,46,10.44Z"/><path class="cls-1" d="M52.59,12.69h-.92l-.93-3.31h-.07l-.93,3.31h-.91l-1.24-4.5h.9l.8,3.44h.07l.93-3.44h.85l.92,3.44h.07l.81-3.44h.89Z"/><path class="cls-1" d="M54.87,8.19h.86v.72h.06a1.36,1.36,0,0,1,1.35-.81,1.48,1.48,0,0,1,1.57,1.36,1.77,1.77,0,0,1,0,.32v2.91h-.88V10c0-.72-.32-1.08-1-1.08a1,1,0,0,0-1.08,1,.81.81,0,0,0,0,.16v2.63h-.89Z"/><path class="cls-1" d="M60.11,6.43H61v6.26h-.89Z"/><path class="cls-1" d="M62.23,10.44a2.13,2.13,0,1,1,4.25-.4,2.67,2.67,0,0,1,0,.4,2.13,2.13,0,1,1-4.25.41A2.8,2.8,0,0,1,62.23,10.44Zm3.34,0c0-1-.44-1.55-1.21-1.55s-1.21.58-1.21,1.55S63.59,12,64.36,12,65.57,11.42,65.57,10.44Z"/><path class="cls-1" d="M67.42,11.42c0-.81.6-1.28,1.67-1.34L70.31,10V9.62c0-.48-.31-.75-.92-.75s-.84.19-.94.5h-.86c.09-.77.82-1.27,1.84-1.27s1.77.57,1.77,1.52v3.07h-.86v-.63h-.07a1.53,1.53,0,0,1-1.35.71,1.37,1.37,0,0,1-1.5-1.21ZM70.31,11v-.38l-1.1.07c-.62,0-.9.25-.9.65s.35.64.84.64a1.06,1.06,0,0,0,1.16-.95Z"/><path class="cls-1" d="M72.36,10.44c0-1.42.74-2.32,1.87-2.32a1.46,1.46,0,0,1,1.38.79h.07V6.43h.89v6.26h-.85V12h-.07a1.57,1.57,0,0,1-1.42.79C73.09,12.77,72.36,11.87,72.36,10.44Zm.92,0c0,1,.45,1.53,1.21,1.53s1.21-.58,1.21-1.52-.47-1.53-1.21-1.53-1.21.57-1.21,1.52Z"/><path class="cls-1" d="M80.25,10.44A2.13,2.13,0,1,1,84.49,10a1.41,1.41,0,0,1,0,.41,2.13,2.13,0,1,1-4.24.41A1.41,1.41,0,0,1,80.25,10.44Zm3.33,0c0-1-.44-1.55-1.21-1.55s-1.21.58-1.21,1.55S81.6,12,82.37,12,83.58,11.42,83.58,10.44Z"/><path class="cls-1" d="M85.69,8.19h.85v.72h.07A1.36,1.36,0,0,1,88,8.1a1.47,1.47,0,0,1,1.57,1.36,1.16,1.16,0,0,1,0,.32v2.91h-.89V10c0-.72-.31-1.08-1-1.08a1,1,0,0,0-1.08,1v2.79h-.88Z"/><path class="cls-1" d="M94.53,7.07V8.21h1V9h-1v2.32c0,.47.2.67.64.67a2,2,0,0,0,.34,0v.74a2.63,2.63,0,0,1-.49.05c-1,0-1.38-.35-1.38-1.22V9h-.71V8.21h.71V7.07Z"/><path class="cls-1" d="M96.72,6.43h.88V8.92h.07A1.37,1.37,0,0,1,99,8.11a1.49,1.49,0,0,1,1.57,1.4,2.62,2.62,0,0,1,0,.28v2.9h-.89V10c0-.72-.34-1.09-1-1.09a1.06,1.06,0,0,0-1.13,1,.48.48,0,0,0,0,.17v2.63h-.89Z"/><path class="cls-1" d="M105.78,11.48a1.82,1.82,0,0,1-2,1.3,2,2,0,0,1-2.1-2,1.22,1.22,0,0,1,0-.33,2.08,2.08,0,0,1,1.78-2.34l.29,0c1.26,0,2,.86,2,2.27v.31h-3.18v.05A1.19,1.19,0,0,0,103.74,12h.11a1.06,1.06,0,0,0,1.07-.54ZM102.65,10h2.28a1.1,1.1,0,0,0-1-1.17h-.1A1.15,1.15,0,0,0,102.65,10v0Z"/></g><polygon class="cls-2" points="29.72 18 12.09 27.79 12.09 8.21 29.72 18"/><line class="cls-2" x1="12.09" y1="27.78" x2="25.18" y2="15.48"/><line class="cls-2" x1="25.25" y1="20.48" x2="12.09" y2="8.21"/></svg>