<svg id="livetype" xmlns="http://www.w3.org/2000/svg" viewBox="0 0 117.92 38.25"><defs><style>.cls-1{fill:#fff;}</style></defs><rect width="117.92" height="38.25" rx="4.08"/><g id="_Group_" data-name=" Group "><g id="_Group_2" data-name=" Group 2"><g id="_Group_3" data-name=" Group 3"><path id="_Path_" data-name=" Path " class="cls-1" d="M24.42,18.41a5,5,0,0,1,2.36-4.16,5.08,5.08,0,0,0-4-2.15c-1.68-.18-3.31,1-4.16,1s-2.19-1-3.61-1a5.3,5.3,0,0,0-4.47,2.73c-1.94,3.35-.5,8.27,1.36,11,.92,1.32,2,2.8,3.42,2.75s1.91-.88,3.58-.88,2.15.88,3.59.85,2.43-1.33,3.33-2.67a11.22,11.22,0,0,0,1.51-3.09A4.81,4.81,0,0,1,24.42,18.41Z"/><path id="_Path_2" data-name=" Path 2" class="cls-1" d="M21.69,10.32a4.93,4.93,0,0,0,1.12-3.49A4.94,4.94,0,0,0,19.6,8.49a4.63,4.63,0,0,0-1.14,3.36A4.09,4.09,0,0,0,21.69,10.32Z"/></g></g><path class="cls-1" d="M41.93,25.81H37.59l-.82,2.47H34.14l4.47-12H40.9l4.49,12H42.76Zm-3.67-2h3l-1.51-4.49Z"/><path class="cls-1" d="M54,23.91a5.32,5.32,0,0,1-.94,3.3,3,3,0,0,1-2.52,1.24,2.79,2.79,0,0,1-2.18-.94v4.2H46V19.37h2.2l.09.87a2.78,2.78,0,0,1,2.25-1,3,3,0,0,1,2.57,1.22A5.54,5.54,0,0,1,54,23.78Zm-2.38-.18a3.54,3.54,0,0,0-.44-1.92,1.44,1.44,0,0,0-1.28-.67,1.54,1.54,0,0,0-1.54.86v3.64a1.58,1.58,0,0,0,1.55.89C51,26.53,51.6,25.6,51.6,23.73Z"/><path class="cls-1" d="M63.48,23.91a5.32,5.32,0,0,1-.94,3.3A3,3,0,0,1,60,28.45a2.79,2.79,0,0,1-2.18-.94v4.2H55.45V19.37h2.21l.09.87a2.78,2.78,0,0,1,2.25-1,3,3,0,0,1,2.57,1.22,5.54,5.54,0,0,1,.91,3.36Zm-2.38-.18a3.54,3.54,0,0,0-.44-1.92,1.44,1.44,0,0,0-1.28-.67,1.54,1.54,0,0,0-1.54.86v3.64a1.58,1.58,0,0,0,1.55.89C60.53,26.53,61.1,25.6,61.1,23.73Z"/><path class="cls-1" d="M75.53,25.13A1.26,1.26,0,0,0,75,24.06a6.53,6.53,0,0,0-1.78-.79,12.74,12.74,0,0,1-2-.82,3.33,3.33,0,0,1-2-3,2.88,2.88,0,0,1,.55-1.73,3.5,3.5,0,0,1,1.57-1.19,5.87,5.87,0,0,1,2.31-.43,5.42,5.42,0,0,1,2.29.47,3.6,3.6,0,0,1,1.56,1.31A3.46,3.46,0,0,1,78,19.83H75.54A1.6,1.6,0,0,0,75,18.55a2.1,2.1,0,0,0-1.46-.46,2.34,2.34,0,0,0-1.41.38,1.22,1.22,0,0,0-.5,1,1.16,1.16,0,0,0,.59,1A6.35,6.35,0,0,0,74,21.2a7.54,7.54,0,0,1,3.07,1.58,3.12,3.12,0,0,1,1,2.34,2.87,2.87,0,0,1-1.18,2.44,5.14,5.14,0,0,1-3.17.89,6.1,6.1,0,0,1-2.52-.51,4,4,0,0,1-1.73-1.39,3.55,3.55,0,0,1-.6-2h2.48q0,2,2.37,2A2.39,2.39,0,0,0,75,26.14,1.18,1.18,0,0,0,75.53,25.13Z"/><path class="cls-1" d="M82.38,17.18v2.19H83.9v1.74H82.38v4.45a1,1,0,0,0,.19.71,1,1,0,0,0,.72.22,3.58,3.58,0,0,0,.7-.06v1.8a4.61,4.61,0,0,1-1.44.22A2.27,2.27,0,0,1,80,25.92V21.11H78.7V19.37H80V17.18Z"/><path class="cls-1" d="M84.61,23.74a5.28,5.28,0,0,1,.51-2.36,3.7,3.7,0,0,1,1.47-1.61,4.3,4.3,0,0,1,2.23-.57,4,4,0,0,1,3,1.11,4.41,4.41,0,0,1,1.27,3l0,.62a4.65,4.65,0,0,1-1.15,3.29,4.43,4.43,0,0,1-6.15,0,4.75,4.75,0,0,1-1.15-3.36Zm2.38.17a3.29,3.29,0,0,0,.48,1.94,1.71,1.71,0,0,0,2.72,0,3.66,3.66,0,0,0,.49-2.12,3.31,3.31,0,0,0-.49-1.93,1.69,1.69,0,0,0-2.72,0A3.72,3.72,0,0,0,87,23.91Z"/><path class="cls-1" d="M99.53,21.6a7.25,7.25,0,0,0-.85-.07,1.76,1.76,0,0,0-1.78.92v5.83H94.52V19.37h2.25l.07,1.06a2.21,2.21,0,0,1,2-1.23,2.56,2.56,0,0,1,.75.11Z"/><path class="cls-1" d="M104.62,28.45a4.35,4.35,0,0,1-3.19-1.21A4.27,4.27,0,0,1,100.2,24v-.23a5.29,5.29,0,0,1,.52-2.4,3.91,3.91,0,0,1,1.47-1.64,4.14,4.14,0,0,1,2.17-.57,3.7,3.7,0,0,1,2.88,1.16,4.67,4.67,0,0,1,1.05,3.27v1h-5.68a2.22,2.22,0,0,0,.7,1.4,2.12,2.12,0,0,0,1.47.53,2.57,2.57,0,0,0,2.15-1l1.17,1.31A3.61,3.61,0,0,1,106.65,28,4.79,4.79,0,0,1,104.62,28.45Zm-.27-7.33a1.5,1.5,0,0,0-1.15.48,2.5,2.5,0,0,0-.56,1.38H106v-.19a1.75,1.75,0,0,0-.43-1.23A1.52,1.52,0,0,0,104.35,21.12Z"/></g><g id="_Group_4" data-name=" Group 4"><path class="cls-1" d="M37.48,6.84A2.63,2.63,0,0,1,40.3,9.28a2.26,2.26,0,0,1,0,.52c0,1.91-1,3-2.81,3H35.33v-6ZM36.25,12h1.13a1.88,1.88,0,0,0,2-1.76,2.54,2.54,0,0,0,0-.39,1.89,1.89,0,0,0-1.61-2.12,2.17,2.17,0,0,0-.36,0H36.25Z"/><path class="cls-1" d="M41.34,10.55a2.13,2.13,0,1,1,4.24-.41,1.41,1.41,0,0,1,0,.41,2.13,2.13,0,1,1-4.24.41A1.41,1.41,0,0,1,41.34,10.55Zm3.33,0c0-1-.44-1.55-1.21-1.55s-1.21.57-1.21,1.55.44,1.55,1.21,1.55,1.21-.57,1.21-1.55Z"/><path class="cls-1" d="M51.23,12.8h-.92l-.93-3.31h-.07l-.93,3.31h-.91L46.22,8.3h.91l.8,3.44H48l.92-3.44h.86l.92,3.44h.07l.81-3.44h.88Z"/><path class="cls-1" d="M53.51,8.3h.85V9h.07a1.36,1.36,0,0,1,1.34-.81,1.47,1.47,0,0,1,1.57,1.35,1.22,1.22,0,0,1,0,.33V12.8h-.89V10.11c0-.72-.31-1.08-1-1.08a1,1,0,0,0-1.08,1,.86.86,0,0,0,0,.16V12.8h-.89Z"/><path class="cls-1" d="M58.75,6.54h.89V12.8h-.89Z"/><path class="cls-1" d="M60.87,10.55a2.13,2.13,0,0,1,4.25-.41,2.8,2.8,0,0,1,0,.41,2.13,2.13,0,1,1-4.25.41A2.8,2.8,0,0,1,60.87,10.55Zm3.34,0c0-1-.44-1.55-1.21-1.55s-1.21.57-1.21,1.55S62.23,12.1,63,12.1,64.21,11.53,64.21,10.55Z"/><path class="cls-1" d="M66.06,11.53c0-.81.6-1.28,1.67-1.34L69,10.12V9.73C69,9.25,68.64,9,68,9s-.84.18-.94.5h-.86c.09-.77.82-1.27,1.84-1.27s1.77.57,1.77,1.52V12.8H69v-.63h-.07a1.53,1.53,0,0,1-1.35.71,1.37,1.37,0,0,1-1.5-1.21ZM69,11.15v-.38l-1.1.07c-.62,0-.9.25-.9.65s.35.64.83.64a1.07,1.07,0,0,0,1.17-1Z"/><path class="cls-1" d="M71,10.55c0-1.42.73-2.32,1.87-2.32A1.46,1.46,0,0,1,74.25,9h.07V6.54h.89V12.8h-.85v-.71h-.07a1.57,1.57,0,0,1-1.42.79C71.73,12.88,71,12,71,10.55Zm.92,0c0,1,.45,1.53,1.2,1.53s1.22-.58,1.22-1.53S73.87,9,73.12,9s-1.2.58-1.2,1.53Z"/><path class="cls-1" d="M78.89,10.55a2.13,2.13,0,1,1,4.24-.41,1.41,1.41,0,0,1,0,.41,2.13,2.13,0,1,1-4.24.41A1.41,1.41,0,0,1,78.89,10.55Zm3.33,0c0-1-.44-1.55-1.21-1.55s-1.21.57-1.21,1.55S80.24,12.1,81,12.1,82.22,11.53,82.22,10.55Z"/><path class="cls-1" d="M84.32,8.3h.86V9h.07a1.36,1.36,0,0,1,1.34-.81,1.47,1.47,0,0,1,1.57,1.35,1.82,1.82,0,0,1,0,.33V12.8h-.89V10.11c0-.72-.31-1.08-1-1.08a1,1,0,0,0-1.08,1V12.8h-.89Z"/><path class="cls-1" d="M93.17,7.18V8.32h1v.75h-1v2.32c0,.47.19.67.64.67a2,2,0,0,0,.34,0v.74a2.72,2.72,0,0,1-.49.05c-1,0-1.38-.35-1.38-1.22V9.07h-.71V8.32h.71V7.18Z"/><path class="cls-1" d="M95.36,6.54h.88V9h.07a1.37,1.37,0,0,1,1.37-.8,1.49,1.49,0,0,1,1.57,1.4,1.37,1.37,0,0,1,0,.28v2.9h-.88V10.12c0-.72-.34-1.09-1-1.09a1.05,1.05,0,0,0-1.13,1,.54.54,0,0,0,0,.18V12.8h-.89Z"/><path class="cls-1" d="M104.42,11.59a1.82,1.82,0,0,1-2,1.3,2,2,0,0,1-2.1-2,1.22,1.22,0,0,1,0-.33,2.07,2.07,0,0,1,1.78-2.34l.29,0c1.25,0,2,.86,2,2.27v.31h-3.18v.05a1.2,1.2,0,0,0,1.09,1.29h.11a1.07,1.07,0,0,0,1.07-.54Zm-3.13-1.45h2.27a1.09,1.09,0,0,0-1-1.17h-.1a1.15,1.15,0,0,0-1.17,1.14v0Z"/></g></svg>