<svg id="Calque_1" data-name="Calque 1" xmlns="http://www.w3.org/2000/svg" viewBox="0 0 400 400"><defs><style>.cls-1{fill:#878787;}</style></defs><path class="cls-1" d="M7.39,13.19a1,1,0,0,1-1-.81c-.62-3.69-.89-5.74-.9-5.76a1,1,0,1,1,1.92-.26s.28,2,.89,5.7a1,1,0,0,1-.79,1.12Z"/><path class="cls-1" d="M376.28,394.13h0c-3.84-.16-7.71-.37-11.52-.63a1,1,0,0,1-.9-1,1,1,0,0,1,1-.9c3.79.27,7.65.48,11.47.63a1,1,0,0,1,.93,1A1,1,0,0,1,376.28,394.13Zm-23-1.59h-.09c-3.83-.37-7.68-.81-11.46-1.3a1,1,0,0,1-.84-1.08,1,1,0,0,1,1.08-.84c3.77.49,7.6.92,11.41,1.3a1,1,0,0,1,.87,1.05A1,1,0,0,1,353.3,392.54Zm-22.81-3h-.16c-3.78-.61-7.6-1.28-11.36-2a1,1,0,1,1,.37-1.9c3.73.72,7.54,1.39,11.3,2a1,1,0,0,1-.15,1.92Zm-22.6-4.37-.21,0c-3.74-.85-7.51-1.77-11.21-2.74a1,1,0,0,1-.69-1.18,1,1,0,0,1,1.18-.69c3.68,1,7.43,1.88,11.15,2.73a1,1,0,0,1,.73,1.15A1,1,0,0,1,307.89,385.22Zm-22.25-5.85a1,1,0,0,1-.28,0c-3.67-1.1-7.37-2.27-11-3.49A1,1,0,0,1,275,374c3.61,1.22,7.28,2.39,10.94,3.48a1,1,0,0,1-.28,1.89ZM263.84,372a1,1,0,0,1-.34-.06c-3.6-1.35-7.21-2.78-10.73-4.25a1,1,0,1,1,.74-1.78c3.5,1.46,7.09,2.88,10.67,4.22a1,1,0,0,1,.56,1.25A1,1,0,0,1,263.84,372Zm-21.24-8.85a.92.92,0,0,1-.4-.08c-3.48-1.6-7-3.28-10.41-5a1,1,0,1,1,.87-1.73c3.41,1.71,6.89,3.38,10.34,5a1,1,0,0,1-.4,1.84ZM222,352.84a1,1,0,0,1-.47-.12c-3.35-1.83-6.73-3.76-10-5.72a1,1,0,0,1,1-1.66c3.28,2,6.64,3.86,10,5.69a1,1,0,0,1-.46,1.81Zm-19.79-11.75a.91.91,0,0,1-.52-.16c-3.21-2.06-6.44-4.21-9.6-6.4a1,1,0,0,1-.25-1.35,1,1,0,0,1,1.35-.24c3.14,2.17,6.35,4.32,9.54,6.37a1,1,0,0,1,.3,1.33A1,1,0,0,1,202.25,341.09ZM183.33,328a1,1,0,0,1-.58-.2c-3.07-2.28-6.15-4.65-9.14-7a1,1,0,0,1-.16-1.36,1,1,0,0,1,1.36-.15c3,2.37,6,4.73,9.1,7a1,1,0,0,1-.58,1.75Zm-18-14.36a.94.94,0,0,1-.63-.23c-2.9-2.47-5.81-5-8.66-7.63a1,1,0,0,1-.06-1.37,1,1,0,0,1,1.36-.07c2.83,2.58,5.73,5.14,8.62,7.6a1,1,0,0,1-.63,1.7Zm-17-15.5a1,1,0,0,1-.67-.27c-2.74-2.66-5.49-5.41-8.16-8.17a1,1,0,1,1,1.38-1.34c2.67,2.74,5.4,5.47,8.13,8.12a1,1,0,0,1,0,1.37A1,1,0,0,1,148.3,298.13Zm-16-16.53a1,1,0,0,1-.71-.31c-2.58-2.82-5.16-5.73-7.66-8.64a1,1,0,1,1,1.46-1.27c2.5,2.9,5.06,5.79,7.62,8.6a1,1,0,0,1-.06,1.37A1,1,0,0,1,132.27,281.6Zm-15-17.45a1,1,0,0,1-.75-.36c-2.41-3-4.81-6-7.16-9.06a1,1,0,1,1,1.53-1.17c2.34,3,4.74,6.07,7.13,9a1,1,0,0,1-.14,1.36A1,1,0,0,1,117.24,264.15Zm-14-18.26a1,1,0,0,1-.79-.4c-2.23-3.08-4.48-6.25-6.67-9.43a1,1,0,0,1,1.6-1.09c2.18,3.16,4.41,6.32,6.64,9.38a1,1,0,0,1-.78,1.54Zm-13.07-19a.94.94,0,0,1-.81-.44c-2.08-3.18-4.16-6.46-6.19-9.74a1,1,0,0,1,.31-1.34,1,1,0,0,1,1.33.32c2,3.27,4.1,6.54,6.17,9.7a1,1,0,0,1-.28,1.34A1,1,0,0,1,90.13,226.91ZM78,207.31a1,1,0,0,1-.84-.47c-1.92-3.28-3.85-6.66-5.73-10a1,1,0,1,1,1.69-.94c1.87,3.36,3.79,6.72,5.71,10a1,1,0,0,1-.35,1.32A.94.94,0,0,1,78,207.31ZM66.8,187.17a1,1,0,0,1-.86-.51c-1.78-3.37-3.55-6.82-5.28-10.27a1,1,0,0,1,.44-1.3,1,1,0,0,1,1.29.43c1.72,3.44,3.49,6.88,5.26,10.24a1,1,0,0,1-.4,1.3A.91.91,0,0,1,66.8,187.17ZM56.48,166.56a1,1,0,0,1-.88-.55c-1.64-3.46-3.27-7-4.85-10.48a1,1,0,1,1,1.77-.79c1.57,3.48,3.19,7,4.83,10.44a1,1,0,0,1-.87,1.38Zm-9.47-21a1,1,0,0,1-.89-.58c-1.5-3.52-3-7.11-4.43-10.67a1,1,0,1,1,1.79-.72c1.43,3.54,2.92,7.12,4.42,10.63a1,1,0,0,1-.51,1.27A1.06,1.06,0,0,1,47,145.54Zm-8.65-21.37a1,1,0,0,1-.9-.63c-1.37-3.57-2.72-7.22-4-10.82a1,1,0,1,1,1.82-.66c1.29,3.6,2.64,7.23,4,10.79a1,1,0,0,1-.56,1.25A.84.84,0,0,1,38.36,124.17Zm-7.83-21.69a1,1,0,0,1-.92-.66c-1.24-3.63-2.46-7.32-3.62-11a1,1,0,1,1,1.84-.59c1.16,3.63,2.38,7.31,3.61,10.94a1,1,0,0,1-.6,1.22A.85.85,0,0,1,30.53,102.48Zm-7-22a1,1,0,0,1-.92-.69c-1.11-3.68-2.19-7.41-3.23-11.1A1,1,0,0,1,20,67.53a1,1,0,0,1,1.19.67c1,3.67,2.12,7.39,3.22,11.06a1,1,0,0,1-.65,1.2A.87.87,0,0,1,23.48,80.51ZM17.24,58.29a1,1,0,0,1-.94-.73c-1-3.72-1.92-7.49-2.82-11.21a1,1,0,0,1,.72-1.17,1,1,0,0,1,1.16.72c.9,3.7,1.84,7.46,2.82,11.18a1,1,0,0,1-.94,1.21ZM11.82,35.83a1,1,0,0,1-.94-.75C10,31.23,9.24,27.41,8.51,23.74a1,1,0,0,1,.77-1.14,1,1,0,0,1,1.13.76c.72,3.67,1.52,7.47,2.36,11.3A1,1,0,0,1,12,35.81.75.75,0,0,1,11.82,35.83Z"/><path class="cls-1" d="M393.51,394.48c-1.95,0-3.89,0-5.82,0a1,1,0,0,1,0-1.94h0c1.92,0,3.85,0,5.79,0a1,1,0,0,1,0,1.94Z"/></svg>