<svg id="Calque_1" data-name="Calque 1" xmlns="http://www.w3.org/2000/svg" viewBox="0 0 400 400"><defs><style>.cls-1{fill:#878787;}</style></defs><path class="cls-1" d="M392.61,13.19a1,1,0,0,0,1-.81c.62-3.69.89-5.74.9-5.76a1,1,0,1,0-1.92-.26s-.28,2-.89,5.7a1,1,0,0,0,.79,1.12Z"/><path class="cls-1" d="M22.76,393.2a1,1,0,0,1,.93-1c3.82-.15,7.68-.36,11.47-.63a1,1,0,0,1,.13,1.94c-3.81.26-7.69.47-11.53.63h0A1,1,0,0,1,22.76,393.2Zm23-1.54a1,1,0,0,1,.87-1.05c3.81-.38,7.64-.81,11.41-1.3a1,1,0,0,1,1.08.84,1,1,0,0,1-.84,1.08c-3.78.49-7.63.93-11.46,1.3h-.1A1,1,0,0,1,45.73,391.66Zm22.83-2.88a1,1,0,0,1,.8-1.11c3.76-.61,7.57-1.28,11.3-2a1,1,0,1,1,.37,1.9c-3.76.73-7.58,1.4-11.36,2h-.16A1,1,0,0,1,68.56,388.78Zm22.6-4.32a1,1,0,0,1,.73-1.15c3.72-.85,7.47-1.77,11.15-2.73a1,1,0,0,1,1.18.69,1,1,0,0,1-.69,1.18c-3.7,1-7.47,1.89-11.21,2.74a.78.78,0,0,1-.22,0A1,1,0,0,1,91.16,384.46Zm22.27-5.78a1,1,0,0,1,.65-1.2c3.66-1.09,7.33-2.26,10.94-3.48a1,1,0,0,1,.61,1.84c-3.62,1.22-7.32,2.39-11,3.49a1,1,0,0,1-.28,0A1,1,0,0,1,113.43,378.68Zm21.83-7.28a1,1,0,0,1,.56-1.25c3.58-1.34,7.16-2.76,10.67-4.22a1,1,0,0,1,.74,1.78c-3.52,1.47-7.13,2.9-10.73,4.25a1,1,0,0,1-.34.06A1,1,0,0,1,135.26,371.4Zm21.26-8.79a1,1,0,0,1,.48-1.28c3.45-1.59,6.93-3.26,10.34-5a1,1,0,0,1,.87,1.73c-3.43,1.72-6.93,3.4-10.41,5a.92.92,0,0,1-.4.08A1,1,0,0,1,156.52,362.61Zm20.6-10.27a1,1,0,0,1,.38-1.31c3.33-1.83,6.69-3.74,10-5.69a1,1,0,1,1,1,1.66c-3.29,2-6.67,3.89-10,5.72a1,1,0,0,1-.47.12A1,1,0,0,1,177.12,352.34Zm19.81-11.7a1,1,0,0,1,.3-1.33c3.19-2.05,6.4-4.2,9.54-6.37a1,1,0,0,1,1.35.24,1,1,0,0,1-.25,1.35c-3.16,2.19-6.39,4.34-9.6,6.4a.91.91,0,0,1-.52.16A1,1,0,0,1,196.93,340.64Zm19-13a1,1,0,0,1,.19-1.36c3.06-2.27,6.12-4.63,9.1-7a1,1,0,0,1,1.36.15,1,1,0,0,1-.16,1.36c-3,2.39-6.07,4.76-9.14,7a.95.95,0,0,1-1.35-.19Zm18-14.31a1,1,0,0,1,.11-1.36c2.89-2.46,5.79-5,8.62-7.6a1,1,0,0,1,1.36.07,1,1,0,0,1-.06,1.37c-2.85,2.59-5.76,5.16-8.66,7.63a.94.94,0,0,1-.63.23A1,1,0,0,1,233.93,313.29ZM251,297.84a1,1,0,0,1,0-1.37c2.73-2.65,5.46-5.38,8.12-8.12a1,1,0,0,1,1.37,0,1,1,0,0,1,0,1.36c-2.67,2.76-5.42,5.51-8.16,8.17a1,1,0,0,1-.67.27A1,1,0,0,1,251,297.84Zm16.08-16.49A1,1,0,0,1,267,280c2.56-2.81,5.12-5.7,7.62-8.6a1,1,0,1,1,1.46,1.27c-2.5,2.91-5.08,5.82-7.66,8.64a1,1,0,0,1-.71.31A1,1,0,0,1,267.08,281.35Zm15.07-17.42a1,1,0,0,1-.14-1.36c2.39-2.94,4.79-6,7.13-9a1,1,0,1,1,1.53,1.17c-2.35,3.06-4.75,6.11-7.16,9.06a1,1,0,0,1-1.36.14Zm14.08-18.23a1,1,0,0,1-.21-1.35c2.23-3.06,4.46-6.22,6.64-9.38a1,1,0,0,1,1.6,1.09c-2.19,3.18-4.44,6.35-6.67,9.43a1,1,0,0,1-1.36.21Zm13.11-18.95a1,1,0,0,1-.28-1.34c2.07-3.16,4.14-6.43,6.17-9.7a1,1,0,0,1,1.33-.32,1,1,0,0,1,.31,1.34c-2,3.28-4.11,6.56-6.19,9.74a.94.94,0,0,1-.81.44A1,1,0,0,1,309.34,226.75Zm12.17-19.57a1,1,0,0,1-.35-1.32c1.92-3.27,3.84-6.63,5.71-10a1,1,0,1,1,1.69.94c-1.88,3.37-3.81,6.75-5.73,10a1,1,0,0,1-.84.47A.94.94,0,0,1,321.51,207.18Zm11.24-20.12a1,1,0,0,1-.4-1.3c1.77-3.36,3.54-6.8,5.26-10.24a1,1,0,0,1,1.29-.43,1,1,0,0,1,.44,1.3c-1.73,3.45-3.5,6.9-5.28,10.27a1,1,0,0,1-.86.51A.91.91,0,0,1,332.75,187.06Zm10.36-20.59a1,1,0,0,1-.46-1.29c1.64-3.45,3.26-7,4.83-10.44a1,1,0,1,1,1.77.79c-1.58,3.5-3.21,7-4.85,10.48a1,1,0,0,1-.88.55A1,1,0,0,1,343.11,166.47Zm9.5-21a1,1,0,0,1-.51-1.27c1.5-3.51,3-7.09,4.42-10.63a1,1,0,1,1,1.79.72c-1.44,3.56-2.93,7.15-4.43,10.67a1,1,0,0,1-.89.58A1.06,1.06,0,0,1,352.61,145.47Zm8.68-21.37a1,1,0,0,1-.56-1.25c1.36-3.56,2.72-7.19,4-10.79a1,1,0,0,1,1.82.66c-1.3,3.6-2.65,7.25-4,10.82a1,1,0,0,1-.9.63A.84.84,0,0,1,361.29,124.1Zm7.87-21.68a1,1,0,0,1-.6-1.22c1.23-3.63,2.45-7.31,3.61-10.94a1,1,0,1,1,1.84.59c-1.16,3.65-2.38,7.34-3.62,11a1,1,0,0,1-.92.66A.85.85,0,0,1,369.16,102.42Zm7.08-22a1,1,0,0,1-.65-1.2c1.1-3.67,2.18-7.39,3.22-11.06a1,1,0,0,1,1.19-.67,1,1,0,0,1,.67,1.19c-1,3.69-2.12,7.42-3.23,11.1a1,1,0,0,1-.93.69A.86.86,0,0,1,376.24,80.46Zm6.28-22.2a1,1,0,0,1-.7-1.18c1-3.72,1.92-7.48,2.82-11.18a1,1,0,0,1,1.16-.72,1,1,0,0,1,.72,1.17c-.9,3.72-1.85,7.49-2.82,11.21a1,1,0,0,1-.94.73ZM388,35.81a1,1,0,0,1-.74-1.15c.84-3.83,1.64-7.63,2.36-11.3a1,1,0,0,1,1.13-.76,1,1,0,0,1,.77,1.14c-.73,3.67-1.52,7.49-2.37,11.34a1,1,0,0,1-.95.75A.71.71,0,0,1,388,35.81Z"/><path class="cls-1" d="M6.49,394.48c1.95,0,3.89,0,5.82,0a1,1,0,0,0,0-1.94h0c-1.92,0-3.85,0-5.79,0a1,1,0,1,0,0,1.94Z"/></svg>